<mxfile host="65bd71144e">
    <diagram id="Oi6eNHbNN4b7aSkW7Dm6" name="Page-1">
        <mxGraphModel dx="9395" dy="6515" grid="1" gridSize="10" guides="1" tooltips="1" connect="1" arrows="1" fold="1" page="0" pageScale="1" pageWidth="1169" pageHeight="827" math="0" shadow="0">
            <root>
                <mxCell id="0"/>
                <mxCell id="1" parent="0"/>
                <mxCell id="31" style="edgeStyle=none;html=1;" parent="1" source="2" target="3" edge="1">
                    <mxGeometry relative="1" as="geometry"/>
                </mxCell>
                <mxCell id="2" value="🌏 - GEOS&lt;br&gt;UW Numerical Validation" style="shape=hexagon;perimeter=hexagonPerimeter2;whiteSpace=wrap;html=1;fixedSize=1;" parent="1" vertex="1">
                    <mxGeometry x="230" y="-70" width="130" height="60" as="geometry"/>
                </mxCell>
                <mxCell id="29" style="edgeStyle=none;html=1;" parent="1" source="3" target="4" edge="1">
                    <mxGeometry relative="1" as="geometry"/>
                </mxCell>
                <mxCell id="67" style="edgeStyle=none;html=1;exitX=1;exitY=0.5;exitDx=0;exitDy=0;entryX=1;entryY=0.5;entryDx=0;entryDy=0;" parent="1" source="4" target="2" edge="1">
                    <mxGeometry relative="1" as="geometry">
                        <Array as="points">
                            <mxPoint x="400" y="-130"/>
                        </Array>
                    </mxGeometry>
                </mxCell>
                <mxCell id="3" value="🌏 - GEOS&lt;br&gt;UW &lt;br&gt;integration" style="shape=hexagon;perimeter=hexagonPerimeter2;whiteSpace=wrap;html=1;fixedSize=1;" parent="1" vertex="1">
                    <mxGeometry x="230" y="-160" width="130" height="60" as="geometry"/>
                </mxCell>
                <mxCell id="25" style="edgeStyle=none;html=1;entryX=0;entryY=0.5;entryDx=0;entryDy=0;" parent="1" source="4" target="14" edge="1">
                    <mxGeometry relative="1" as="geometry">
                        <Array as="points">
                            <mxPoint x="290" y="-410"/>
                        </Array>
                    </mxGeometry>
                </mxCell>
                <mxCell id="4" value="🌏 - GEOS&lt;br&gt;UW &lt;br&gt;Scientific&amp;nbsp;Validation" style="shape=hexagon;perimeter=hexagonPerimeter2;whiteSpace=wrap;html=1;fixedSize=1;" parent="1" vertex="1">
                    <mxGeometry x="210" y="-240" width="160" height="60" as="geometry"/>
                </mxCell>
                <mxCell id="32" style="edgeStyle=none;html=1;" parent="1" source="5" target="6" edge="1">
                    <mxGeometry relative="1" as="geometry"/>
                </mxCell>
                <mxCell id="5" value="🌏 - GEOS&lt;br&gt;GFDL 1M Numerical Validation" style="shape=hexagon;perimeter=hexagonPerimeter2;whiteSpace=wrap;html=1;fixedSize=1;" parent="1" vertex="1">
                    <mxGeometry x="420" y="-70" width="130" height="60" as="geometry"/>
                </mxCell>
                <mxCell id="28" style="edgeStyle=none;html=1;" parent="1" source="6" target="7" edge="1">
                    <mxGeometry relative="1" as="geometry"/>
                </mxCell>
                <mxCell id="66" style="edgeStyle=none;html=1;exitX=1;exitY=0.5;exitDx=0;exitDy=0;entryX=1;entryY=0.5;entryDx=0;entryDy=0;" parent="1" source="7" target="5" edge="1">
                    <mxGeometry relative="1" as="geometry">
                        <Array as="points">
                            <mxPoint x="600" y="-120"/>
                        </Array>
                    </mxGeometry>
                </mxCell>
                <mxCell id="6" value="🌏 - GEOS&lt;br&gt;GFDL 1M&amp;nbsp;GEOS&lt;br&gt;integration" style="shape=hexagon;perimeter=hexagonPerimeter2;whiteSpace=wrap;html=1;fixedSize=1;" parent="1" vertex="1">
                    <mxGeometry x="420" y="-160" width="130" height="60" as="geometry"/>
                </mxCell>
                <mxCell id="26" style="edgeStyle=none;html=1;entryX=0.5;entryY=1;entryDx=0;entryDy=0;" parent="1" source="7" target="14" edge="1">
                    <mxGeometry relative="1" as="geometry">
                        <mxPoint x="485" y="-280" as="targetPoint"/>
                    </mxGeometry>
                </mxCell>
                <mxCell id="7" value="🌏 - GEOS&lt;span style=&quot;color: rgba(0, 0, 0, 0); font-family: monospace; font-size: 0px; text-align: start;&quot;&gt;%3CmxGraphModel%3E%3Croot%3E%3CmxCell%20id%3D%220%22%2F%3E%3CmxCell%20id%3D%221%22%20parent%3D%220%22%2F%3E%3CmxCell%20id%3D%222%22%20value%3D%22%F0%9F%8C%8F%26lt%3Bbr%26gt%3BGFDL%201M%26amp%3Bnbsp%3BGEOS%26lt%3Bbr%26gt%3BScientific%26amp%3Bnbsp%3BVadlidation%22%20style%3D%22shape%3Dhexagon%3Bperimeter%3DhexagonPerimeter2%3BwhiteSpace%3Dwrap%3Bhtml%3D1%3BfixedSize%3D1%3B%22%20vertex%3D%221%22%20parent%3D%221%22%3E%3CmxGeometry%20x%3D%22320%22%20y%3D%2210%22%20width%3D%22160%22%20height%3D%2260%22%20as%3D%22geometry%22%2F%3E%3C%2FmxCell%3E%3CmxCell%20id%3D%223%22%20value%3D%22%F0%9F%8C%8F%26lt%3Bbr%26gt%3BGF%20GEOS%26lt%3Bbr%26gt%3BScientific%26amp%3Bnbsp%3BVadlidation%22%20style%3D%22shape%3Dhexagon%3Bperimeter%3DhexagonPerimeter2%3BwhiteSpace%3Dwrap%3Bhtml%3D1%3BfixedSize%3D1%3B%22%20vertex%3D%221%22%20parent%3D%221%22%3E%3CmxGeometry%20x%3D%22505%22%20y%3D%2210%22%20width%3D%22160%22%20height%3D%2260%22%20as%3D%22geometry%22%2F%3E%3C%2FmxCell%3E%3C%2Froot%3E%3C%2FmxGraphModel%3E&lt;/span&gt;&lt;br&gt;GFDL 1M&lt;br&gt;Scientific&amp;nbsp;Vadlidation" style="shape=hexagon;perimeter=hexagonPerimeter2;whiteSpace=wrap;html=1;fixedSize=1;" parent="1" vertex="1">
                    <mxGeometry x="410" y="-240" width="160" height="60" as="geometry"/>
                </mxCell>
                <mxCell id="33" style="edgeStyle=none;html=1;" parent="1" source="8" target="9" edge="1">
                    <mxGeometry relative="1" as="geometry"/>
                </mxCell>
                <mxCell id="8" value="🌏 - GEOS&lt;br&gt;GF&amp;nbsp;Numerical Validation" style="shape=hexagon;perimeter=hexagonPerimeter2;whiteSpace=wrap;html=1;fixedSize=1;" parent="1" vertex="1">
                    <mxGeometry x="630" y="-70" width="130" height="60" as="geometry"/>
                </mxCell>
                <mxCell id="34" style="edgeStyle=none;html=1;" parent="1" source="9" target="10" edge="1">
                    <mxGeometry relative="1" as="geometry"/>
                </mxCell>
                <mxCell id="68" style="edgeStyle=none;html=1;exitX=1;exitY=0.5;exitDx=0;exitDy=0;entryX=1;entryY=0.5;entryDx=0;entryDy=0;" parent="1" source="10" target="8" edge="1">
                    <mxGeometry relative="1" as="geometry">
                        <Array as="points">
                            <mxPoint x="810" y="-120"/>
                        </Array>
                    </mxGeometry>
                </mxCell>
                <mxCell id="9" value="🌏 - GEOS&lt;br&gt;GF&amp;nbsp;&lt;br&gt;integration" style="shape=hexagon;perimeter=hexagonPerimeter2;whiteSpace=wrap;html=1;fixedSize=1;" parent="1" vertex="1">
                    <mxGeometry x="630" y="-160" width="130" height="60" as="geometry"/>
                </mxCell>
                <mxCell id="27" style="edgeStyle=none;html=1;entryX=1;entryY=0.5;entryDx=0;entryDy=0;" parent="1" source="10" target="14" edge="1">
                    <mxGeometry relative="1" as="geometry">
                        <Array as="points">
                            <mxPoint x="690" y="-410"/>
                        </Array>
                    </mxGeometry>
                </mxCell>
                <mxCell id="10" value="🌏 - GEOS&lt;br&gt;GF &lt;br&gt;Scientific&amp;nbsp;Vadlidation" style="shape=hexagon;perimeter=hexagonPerimeter2;whiteSpace=wrap;html=1;fixedSize=1;" parent="1" vertex="1">
                    <mxGeometry x="610" y="-240" width="160" height="60" as="geometry"/>
                </mxCell>
                <mxCell id="22" style="edgeStyle=none;html=1;" parent="1" source="13" target="15" edge="1">
                    <mxGeometry relative="1" as="geometry"/>
                </mxCell>
                <mxCell id="13" value="🌏 - GEOS&lt;br&gt;Moist&lt;br&gt;Scientific&amp;nbsp;Validation" style="shape=hexagon;perimeter=hexagonPerimeter2;whiteSpace=wrap;html=1;fixedSize=1;" parent="1" vertex="1">
                    <mxGeometry x="410" y="-520" width="160" height="60" as="geometry"/>
                </mxCell>
                <mxCell id="23" style="edgeStyle=none;html=1;" parent="1" source="14" target="13" edge="1">
                    <mxGeometry relative="1" as="geometry"/>
                </mxCell>
                <mxCell id="14" value="🌏 - GEOS&lt;br&gt;Moist&lt;br&gt;Integration (not optimized)" style="shape=hexagon;perimeter=hexagonPerimeter2;whiteSpace=wrap;html=1;fixedSize=1;" parent="1" vertex="1">
                    <mxGeometry x="375" y="-440" width="230" height="60" as="geometry"/>
                </mxCell>
                <mxCell id="20" style="edgeStyle=none;html=1;exitX=0.5;exitY=0;exitDx=0;exitDy=0;entryX=0.5;entryY=1;entryDx=0;entryDy=0;" parent="1" source="15" target="17" edge="1">
                    <mxGeometry relative="1" as="geometry">
                        <Array as="points">
                            <mxPoint x="490" y="-660"/>
                            <mxPoint x="600" y="-660"/>
                        </Array>
                    </mxGeometry>
                </mxCell>
                <mxCell id="21" style="edgeStyle=none;html=1;" parent="1" source="15" target="16" edge="1">
                    <mxGeometry relative="1" as="geometry">
                        <Array as="points">
                            <mxPoint x="490" y="-660"/>
                            <mxPoint x="370" y="-660"/>
                        </Array>
                    </mxGeometry>
                </mxCell>
                <mxCell id="15" value="🌏 - GEOS&lt;br&gt;Moist&lt;br&gt;Optimized Integration" style="shape=hexagon;perimeter=hexagonPerimeter2;whiteSpace=wrap;html=1;fixedSize=1;" parent="1" vertex="1">
                    <mxGeometry x="375" y="-610" width="230" height="60" as="geometry"/>
                </mxCell>
                <mxCell id="121" style="edgeStyle=none;html=1;strokeColor=#F0F0F0;" parent="1" source="16" target="186" edge="1">
                    <mxGeometry relative="1" as="geometry">
                        <mxPoint x="210" y="-1400" as="targetPoint"/>
                    </mxGeometry>
                </mxCell>
                <mxCell id="16" value="🌏 - GEOS&lt;br&gt;Moist&lt;br&gt;Scientific&amp;nbsp;Validation" style="shape=hexagon;perimeter=hexagonPerimeter2;whiteSpace=wrap;html=1;fixedSize=1;" parent="1" vertex="1">
                    <mxGeometry x="290" y="-950" width="160" height="60" as="geometry"/>
                </mxCell>
                <mxCell id="124" style="edgeStyle=none;html=1;entryX=0.5;entryY=1;entryDx=0;entryDy=0;strokeColor=#F0F0F0;" parent="1" source="17" target="52" edge="1">
                    <mxGeometry relative="1" as="geometry">
                        <Array as="points">
                            <mxPoint x="600" y="-920"/>
                            <mxPoint x="820" y="-920"/>
                        </Array>
                    </mxGeometry>
                </mxCell>
                <mxCell id="160" style="edgeStyle=none;html=1;strokeColor=#F0F0F0;entryX=0.5;entryY=1;entryDx=0;entryDy=0;" parent="1" source="17" target="166" edge="1">
                    <mxGeometry relative="1" as="geometry">
                        <mxPoint x="600" y="-1180" as="targetPoint"/>
                    </mxGeometry>
                </mxCell>
                <mxCell id="17" value="🌏 - GEOS&lt;br&gt;Moist&lt;br&gt;Benchmark" style="shape=hexagon;perimeter=hexagonPerimeter2;whiteSpace=wrap;html=1;fixedSize=1;" parent="1" vertex="1">
                    <mxGeometry x="520" y="-760" width="160" height="60" as="geometry"/>
                </mxCell>
                <mxCell id="19" style="edgeStyle=none;html=1;exitX=0;exitY=0.5;exitDx=0;exitDy=0;entryX=1;entryY=0.5;entryDx=0;entryDy=0;" parent="1" source="18" target="15" edge="1">
                    <mxGeometry relative="1" as="geometry"/>
                </mxCell>
                <mxCell id="18" value="&lt;b&gt;{...}&lt;/b&gt; - pyMoist&lt;br&gt;Port&lt;br&gt;Glue code" style="rounded=0;whiteSpace=wrap;html=1;" parent="1" vertex="1">
                    <mxGeometry x="760" y="-610" width="120" height="60" as="geometry"/>
                </mxCell>
                <mxCell id="84" style="edgeStyle=none;html=1;entryX=1;entryY=0.5;entryDx=0;entryDy=0;strokeColor=#F0F0F0;" parent="1" source="35" target="82" edge="1">
                    <mxGeometry relative="1" as="geometry"/>
                </mxCell>
                <mxCell id="125" style="edgeStyle=none;html=1;exitX=0.5;exitY=0;exitDx=0;exitDy=0;entryX=1;entryY=0.5;entryDx=0;entryDy=0;strokeColor=#F0F0F0;" parent="1" source="35" target="52" edge="1">
                    <mxGeometry relative="1" as="geometry">
                        <Array as="points">
                            <mxPoint x="1480" y="-1040"/>
                        </Array>
                    </mxGeometry>
                </mxCell>
                <mxCell id="138" style="edgeStyle=none;html=1;strokeColor=#F0F0F0;" parent="1" source="35" target="139" edge="1">
                    <mxGeometry relative="1" as="geometry">
                        <mxPoint x="2130" y="-880" as="targetPoint"/>
                        <Array as="points">
                            <mxPoint x="1675" y="-280"/>
                        </Array>
                    </mxGeometry>
                </mxCell>
                <mxCell id="35" value="🌏 - GEOS&lt;br&gt;Dynamics (FV3)&lt;br&gt;Benchmark" style="shape=hexagon;perimeter=hexagonPerimeter2;whiteSpace=wrap;html=1;fixedSize=1;" parent="1" vertex="1">
                    <mxGeometry x="1360" y="-170" width="230" height="60" as="geometry"/>
                </mxCell>
                <mxCell id="38" style="edgeStyle=none;html=1;" parent="1" source="36" target="35" edge="1">
                    <mxGeometry relative="1" as="geometry"/>
                </mxCell>
                <mxCell id="41" style="edgeStyle=none;html=1;" parent="1" source="36" target="40" edge="1">
                    <mxGeometry relative="1" as="geometry"/>
                </mxCell>
                <mxCell id="85" style="edgeStyle=none;html=1;strokeColor=#F0F0F0;entryX=1;entryY=0.5;entryDx=0;entryDy=0;" parent="1" source="36" target="82" edge="1">
                    <mxGeometry relative="1" as="geometry">
                        <mxPoint x="1730" y="-1010" as="targetPoint"/>
                        <Array as="points">
                            <mxPoint x="1280" y="-110"/>
                        </Array>
                    </mxGeometry>
                </mxCell>
                <mxCell id="36" value="🌏 - GEOS&lt;br&gt;Dynamics (FV3)&lt;br&gt;Scientific Validation" style="shape=hexagon;perimeter=hexagonPerimeter2;whiteSpace=wrap;html=1;fixedSize=1;" parent="1" vertex="1">
                    <mxGeometry x="1360" y="-70" width="230" height="60" as="geometry"/>
                </mxCell>
                <mxCell id="39" style="edgeStyle=none;html=1;" parent="1" source="37" target="36" edge="1">
                    <mxGeometry relative="1" as="geometry"/>
                </mxCell>
                <mxCell id="37" value="🌏 - GEOS&lt;br&gt;Dynamics (FV3)&lt;br&gt;Numerical Validation" style="shape=hexagon;perimeter=hexagonPerimeter2;whiteSpace=wrap;html=1;fixedSize=1;" parent="1" vertex="1">
                    <mxGeometry x="1360" y="60" width="230" height="60" as="geometry"/>
                </mxCell>
                <mxCell id="176" style="edgeStyle=none;html=1;strokeColor=#F0F0F0;entryX=0.5;entryY=1;entryDx=0;entryDy=0;" parent="1" source="40" target="109" edge="1">
                    <mxGeometry relative="1" as="geometry"/>
                </mxCell>
                <mxCell id="40" value="&lt;div&gt;&lt;/div&gt;🔀 - pyFV3&lt;br&gt;&lt;br&gt;Merge back to mainline" style="rounded=0;whiteSpace=wrap;html=1;" parent="1" vertex="1">
                    <mxGeometry x="1140" y="-60" width="190" height="60" as="geometry"/>
                </mxCell>
                <mxCell id="86" style="edgeStyle=none;html=1;strokeColor=#F0F0F0;" parent="1" source="42" target="35" edge="1">
                    <mxGeometry relative="1" as="geometry"/>
                </mxCell>
                <mxCell id="42" value="&lt;div&gt;&lt;/div&gt;🚀&amp;nbsp;- pyFV3&lt;br&gt;&lt;br&gt;Optimize MPP Global domain" style="rounded=0;whiteSpace=wrap;html=1;" parent="1" vertex="1">
                    <mxGeometry x="1680" y="-170" width="190" height="60" as="geometry"/>
                </mxCell>
                <mxCell id="232" style="edgeStyle=none;html=1;" parent="1" source="44" target="109" edge="1">
                    <mxGeometry relative="1" as="geometry"/>
                </mxCell>
                <mxCell id="44" value="&lt;div&gt;&lt;/div&gt;🚀&amp;nbsp;- pyFV3&lt;br&gt;&lt;br&gt;Optimize orchestration build for Tracers" style="rounded=0;whiteSpace=wrap;html=1;" parent="1" vertex="1">
                    <mxGeometry x="930" y="-290" width="190" height="70" as="geometry"/>
                </mxCell>
                <mxCell id="101" style="edgeStyle=none;html=1;strokeColor=#F0F0F0;" parent="1" source="45" target="46" edge="1">
                    <mxGeometry relative="1" as="geometry"/>
                </mxCell>
                <mxCell id="255" style="edgeStyle=none;html=1;" parent="1" source="45" target="47" edge="1">
                    <mxGeometry relative="1" as="geometry">
                        <Array as="points">
                            <mxPoint x="2250" y="230"/>
                        </Array>
                    </mxGeometry>
                </mxCell>
                <mxCell id="289" style="edgeStyle=none;html=1;" parent="1" source="45" target="290" edge="1">
                    <mxGeometry relative="1" as="geometry">
                        <mxPoint x="2870" y="230" as="targetPoint"/>
                    </mxGeometry>
                </mxCell>
                <mxCell id="45" value="🚀&amp;nbsp;- NDSL&lt;br&gt;Performance&lt;br&gt;CPU for dynamics" style="shape=hexagon;perimeter=hexagonPerimeter2;whiteSpace=wrap;html=1;fixedSize=1;" parent="1" vertex="1">
                    <mxGeometry x="2520" y="200" width="230" height="60" as="geometry"/>
                </mxCell>
                <mxCell id="245" style="edgeStyle=none;html=1;" parent="1" source="46" target="244" edge="1">
                    <mxGeometry relative="1" as="geometry"/>
                </mxCell>
                <mxCell id="249" style="edgeStyle=none;html=1;" parent="1" source="46" target="247" edge="1">
                    <mxGeometry relative="1" as="geometry">
                        <Array as="points">
                            <mxPoint x="2910" y="110"/>
                        </Array>
                    </mxGeometry>
                </mxCell>
                <mxCell id="250" style="edgeStyle=none;html=1;" parent="1" source="46" target="248" edge="1">
                    <mxGeometry relative="1" as="geometry">
                        <Array as="points">
                            <mxPoint x="3180" y="110"/>
                        </Array>
                    </mxGeometry>
                </mxCell>
                <mxCell id="46" value="🚀&amp;nbsp;- NDSL&lt;br&gt;Performance&lt;br&gt;GPU for dynamics" style="shape=hexagon;perimeter=hexagonPerimeter2;whiteSpace=wrap;html=1;fixedSize=1;" parent="1" vertex="1">
                    <mxGeometry x="2520" y="80" width="230" height="60" as="geometry"/>
                </mxCell>
                <mxCell id="256" style="edgeStyle=none;html=1;" parent="1" source="47" target="48" edge="1">
                    <mxGeometry relative="1" as="geometry"/>
                </mxCell>
                <mxCell id="47" value="🚀&amp;nbsp;- NDSL&lt;br&gt;Performance&lt;br&gt;CPU for physics" style="shape=hexagon;perimeter=hexagonPerimeter2;whiteSpace=wrap;html=1;fixedSize=1;" parent="1" vertex="1">
                    <mxGeometry x="2130" y="-40" width="230" height="60" as="geometry"/>
                </mxCell>
                <mxCell id="48" value="🚀&amp;nbsp;- NDSL&lt;br&gt;Performance&lt;br&gt;GPU for physics" style="shape=hexagon;perimeter=hexagonPerimeter2;whiteSpace=wrap;html=1;fixedSize=1;" parent="1" vertex="1">
                    <mxGeometry x="2130" y="-160" width="230" height="60" as="geometry"/>
                </mxCell>
                <mxCell id="99" style="edgeStyle=none;html=1;strokeColor=#F0F0F0;" parent="1" source="49" target="222" edge="1">
                    <mxGeometry relative="1" as="geometry"/>
                </mxCell>
                <mxCell id="49" value="&lt;div&gt;&lt;/div&gt;&lt;b&gt;{...}&lt;/b&gt;&amp;nbsp; - GT4Py/DaCe&lt;br&gt;&lt;br&gt;Refactor to expose control-flow to DaCe" style="rounded=0;whiteSpace=wrap;html=1;" parent="1" vertex="1">
                    <mxGeometry x="2130" y="1250" width="220" height="60" as="geometry"/>
                </mxCell>
                <mxCell id="254" style="edgeStyle=none;html=1;" parent="1" source="50" target="45" edge="1">
                    <mxGeometry relative="1" as="geometry"/>
                </mxCell>
                <mxCell id="50" value="&lt;div&gt;&lt;/div&gt;&lt;b&gt;{...}&lt;/b&gt;&amp;nbsp; - DaCe&lt;br&gt;&lt;br&gt;SDFG -&amp;gt; STREE bridge" style="rounded=0;whiteSpace=wrap;html=1;" parent="1" vertex="1">
                    <mxGeometry x="2390" y="1120" width="220" height="60" as="geometry"/>
                </mxCell>
                <mxCell id="51" value="🖋 - Docs&lt;br&gt;GT4Py&lt;br&gt;Cartesian for Physics" style="shape=hexagon;perimeter=hexagonPerimeter2;whiteSpace=wrap;html=1;fixedSize=1;" parent="1" vertex="1">
                    <mxGeometry x="1100" y="980" width="230" height="60" as="geometry"/>
                </mxCell>
                <mxCell id="52" value="🖋 - Docs&lt;br&gt;GEOS vDSL&lt;br&gt;Accelerated GEOS under NDSL" style="shape=hexagon;perimeter=hexagonPerimeter2;whiteSpace=wrap;html=1;fixedSize=1;" parent="1" vertex="1">
                    <mxGeometry x="705" y="-1070" width="230" height="60" as="geometry"/>
                </mxCell>
                <mxCell id="56" style="edgeStyle=none;html=1;entryX=1;entryY=0.5;entryDx=0;entryDy=0;fillColor=#e51400;strokeColor=#F0F0F0;" parent="1" source="54" target="17" edge="1">
                    <mxGeometry relative="1" as="geometry">
                        <Array as="points">
                            <mxPoint x="770" y="-730"/>
                        </Array>
                    </mxGeometry>
                </mxCell>
                <mxCell id="54" value="🐞&amp;nbsp;- DaCe&lt;br&gt;&lt;br&gt;GFDL 1M write back to 2D" style="rounded=0;whiteSpace=wrap;html=1;strokeColor=#CC0000;" parent="1" vertex="1">
                    <mxGeometry x="830" y="-710" width="180" height="60" as="geometry"/>
                </mxCell>
                <mxCell id="59" style="edgeStyle=none;html=1;" parent="1" source="58" target="258" edge="1">
                    <mxGeometry relative="1" as="geometry"/>
                </mxCell>
                <mxCell id="58" value="&lt;b&gt;{...}&lt;/b&gt;&amp;nbsp;- pyMoist&lt;br&gt;Port&lt;br&gt;UW compute code" style="rounded=0;whiteSpace=wrap;html=1;" parent="1" vertex="1">
                    <mxGeometry x="240" y="210" width="120" height="60" as="geometry"/>
                </mxCell>
                <mxCell id="72" style="edgeStyle=none;html=1;entryX=0.5;entryY=1;entryDx=0;entryDy=0;" parent="1" source="60" target="70" edge="1">
                    <mxGeometry relative="1" as="geometry">
                        <Array as="points">
                            <mxPoint x="1560" y="1120"/>
                            <mxPoint x="920" y="1120"/>
                        </Array>
                    </mxGeometry>
                </mxCell>
                <mxCell id="60" value="&lt;div&gt;&lt;/div&gt;&lt;b&gt;{...}&lt;/b&gt;&amp;nbsp; - GT4Py&lt;br&gt;Common DSL&lt;br&gt;2D Temporaries" style="rounded=0;whiteSpace=wrap;html=1;" parent="1" vertex="1">
                    <mxGeometry x="1450" y="1200" width="220" height="60" as="geometry"/>
                </mxCell>
                <mxCell id="73" style="edgeStyle=none;html=1;entryX=0.5;entryY=1;entryDx=0;entryDy=0;" parent="1" source="61" target="70" edge="1">
                    <mxGeometry relative="1" as="geometry">
                        <Array as="points">
                            <mxPoint x="900" y="1120"/>
                            <mxPoint x="920" y="1120"/>
                        </Array>
                    </mxGeometry>
                </mxCell>
                <mxCell id="61" value="&lt;div&gt;&lt;/div&gt;&lt;b&gt;{...}&lt;/b&gt;&amp;nbsp; - GT4Py&lt;br&gt;Physics DSL&lt;br&gt;Runtime interval" style="rounded=0;whiteSpace=wrap;html=1;" parent="1" vertex="1">
                    <mxGeometry x="790" y="1200" width="220" height="60" as="geometry"/>
                </mxCell>
                <mxCell id="74" style="edgeStyle=none;html=1;entryX=0.5;entryY=1;entryDx=0;entryDy=0;" parent="1" source="62" target="70" edge="1">
                    <mxGeometry relative="1" as="geometry">
                        <Array as="points">
                            <mxPoint x="1340" y="1120"/>
                            <mxPoint x="920" y="1120"/>
                        </Array>
                    </mxGeometry>
                </mxCell>
                <mxCell id="62" value="&lt;div&gt;&lt;/div&gt;&lt;b&gt;{...}&lt;/b&gt;&amp;nbsp; - GT4Py&lt;br&gt;Physics DSL&lt;br&gt;Nested K-Loop" style="rounded=0;whiteSpace=wrap;html=1;" parent="1" vertex="1">
                    <mxGeometry x="1230" y="1200" width="220" height="60" as="geometry"/>
                </mxCell>
                <mxCell id="71" style="edgeStyle=none;html=1;entryX=0.5;entryY=1;entryDx=0;entryDy=0;" parent="1" source="63" target="70" edge="1">
                    <mxGeometry relative="1" as="geometry">
                        <Array as="points">
                            <mxPoint x="680" y="1120"/>
                            <mxPoint x="920" y="1120"/>
                        </Array>
                    </mxGeometry>
                </mxCell>
                <object label="&lt;div&gt;&lt;/div&gt;&lt;b&gt;{...}&lt;/b&gt;&amp;nbsp; - GT4Py&lt;br&gt;Physics DSL&lt;br&gt;Computation-wide conditional (mask)" id="63">
                    <mxCell style="rounded=0;whiteSpace=wrap;html=1;" parent="1" vertex="1">
                        <mxGeometry x="570" y="1200" width="220" height="60" as="geometry"/>
                    </mxCell>
                </object>
                <mxCell id="65" style="edgeStyle=none;html=1;" parent="1" source="64" target="8" edge="1">
                    <mxGeometry relative="1" as="geometry"/>
                </mxCell>
                <mxCell id="64" value="&lt;b&gt;{...}&lt;/b&gt;&amp;nbsp;- pyMoist&lt;br&gt;Port&lt;br&gt;GF Interface" style="rounded=0;whiteSpace=wrap;html=1;" parent="1" vertex="1">
                    <mxGeometry x="635" y="40" width="120" height="60" as="geometry"/>
                </mxCell>
                <mxCell id="79" style="edgeStyle=none;html=1;entryX=0;entryY=0.5;entryDx=0;entryDy=0;" parent="1" source="70" target="77" edge="1">
                    <mxGeometry relative="1" as="geometry">
                        <Array as="points">
                            <mxPoint x="920" y="910"/>
                        </Array>
                    </mxGeometry>
                </mxCell>
                <mxCell id="80" style="edgeStyle=none;html=1;entryX=0.5;entryY=1;entryDx=0;entryDy=0;dashed=1;dashPattern=8 8;" parent="1" source="70" target="58" edge="1">
                    <mxGeometry relative="1" as="geometry">
                        <Array as="points">
                            <mxPoint x="920" y="520"/>
                            <mxPoint x="300" y="520"/>
                        </Array>
                    </mxGeometry>
                </mxCell>
                <mxCell id="111" style="edgeStyle=none;html=1;entryX=0;entryY=0.5;entryDx=0;entryDy=0;strokeColor=#F0F0F0;" parent="1" source="70" target="51" edge="1">
                    <mxGeometry relative="1" as="geometry"/>
                </mxCell>
                <mxCell id="182" style="edgeStyle=none;html=1;entryX=0.5;entryY=1;entryDx=0;entryDy=0;dashed=1;dashPattern=8 8;" parent="1" source="70" target="5" edge="1">
                    <mxGeometry relative="1" as="geometry">
                        <Array as="points">
                            <mxPoint x="920" y="520"/>
                            <mxPoint x="490" y="520"/>
                        </Array>
                    </mxGeometry>
                </mxCell>
                <mxCell id="70" value="&lt;b&gt;{...}&lt;/b&gt;&amp;nbsp;- GT4Py&lt;br&gt;Physics DSL&lt;br&gt;Experimental feature set" style="shape=hexagon;perimeter=hexagonPerimeter2;whiteSpace=wrap;html=1;fixedSize=1;" parent="1" vertex="1">
                    <mxGeometry x="805" y="980" width="230" height="60" as="geometry"/>
                </mxCell>
                <mxCell id="76" style="edgeStyle=none;html=1;entryX=0.5;entryY=1;entryDx=0;entryDy=0;" parent="1" source="75" target="70" edge="1">
                    <mxGeometry relative="1" as="geometry">
                        <Array as="points">
                            <mxPoint x="1120" y="1120"/>
                            <mxPoint x="920" y="1120"/>
                        </Array>
                    </mxGeometry>
                </mxCell>
                <mxCell id="75" value="&lt;div&gt;&lt;/div&gt;&lt;b&gt;{...}&lt;/b&gt;&amp;nbsp; - GT4Py&lt;br&gt;Common DSL&lt;br&gt;nD Field Creation" style="rounded=0;whiteSpace=wrap;html=1;" parent="1" vertex="1">
                    <mxGeometry x="1010" y="1200" width="220" height="60" as="geometry"/>
                </mxCell>
                <mxCell id="77" value="🔀&amp;nbsp;- GT4Py&lt;br&gt;&lt;br&gt;Merge back to mainline" style="shape=hexagon;perimeter=hexagonPerimeter2;whiteSpace=wrap;html=1;fixedSize=1;" parent="1" vertex="1">
                    <mxGeometry x="1100" y="880" width="230" height="60" as="geometry"/>
                </mxCell>
                <mxCell id="82" value="🖋 - Docs&lt;br&gt;&lt;br&gt;pyFV3 capacties (with NOAA)" style="shape=hexagon;perimeter=hexagonPerimeter2;whiteSpace=wrap;html=1;fixedSize=1;" parent="1" vertex="1">
                    <mxGeometry x="870" y="-170" width="230" height="60" as="geometry"/>
                </mxCell>
                <mxCell id="293" style="edgeStyle=none;html=1;" parent="1" source="109" target="292" edge="1">
                    <mxGeometry relative="1" as="geometry"/>
                </mxCell>
                <mxCell id="109" value="🌏&amp;nbsp;- pyFV3&lt;br&gt;&lt;br&gt;pyFV3 1.0" style="shape=hexagon;perimeter=hexagonPerimeter2;whiteSpace=wrap;html=1;fixedSize=1;" parent="1" vertex="1">
                    <mxGeometry x="1120" y="-420" width="230" height="60" as="geometry"/>
                </mxCell>
                <mxCell id="122" style="edgeStyle=none;html=1;strokeColor=#F0F0F0;" parent="1" source="113" target="119" edge="1">
                    <mxGeometry relative="1" as="geometry"/>
                </mxCell>
                <object label="&lt;div&gt;&lt;/div&gt;&lt;b&gt;{...}&lt;/b&gt;&amp;nbsp;- pyMoist&lt;br&gt;UW&lt;br&gt;Update to v12" id="113">
                    <mxCell style="rounded=0;whiteSpace=wrap;html=1;" parent="1" vertex="1">
                        <mxGeometry x="1227" y="-1480" width="110" height="60" as="geometry"/>
                    </mxCell>
                </object>
                <mxCell id="123" style="edgeStyle=none;html=1;strokeColor=#F0F0F0;" parent="1" source="119" target="120" edge="1">
                    <mxGeometry relative="1" as="geometry"/>
                </mxCell>
                <mxCell id="119" value="🌏 - GEOS&lt;br&gt;Moist (v12)&lt;br&gt;Validation" style="shape=hexagon;perimeter=hexagonPerimeter2;whiteSpace=wrap;html=1;fixedSize=1;" parent="1" vertex="1">
                    <mxGeometry x="1327" y="-1660" width="160" height="60" as="geometry"/>
                </mxCell>
                <mxCell id="197" style="edgeStyle=none;html=1;" parent="1" source="120" target="196" edge="1">
                    <mxGeometry relative="1" as="geometry"/>
                </mxCell>
                <mxCell id="120" value="🌏 - GEOS&lt;br&gt;Moist (v12)&lt;br&gt;Benchmark" style="shape=hexagon;perimeter=hexagonPerimeter2;whiteSpace=wrap;html=1;fixedSize=1;" parent="1" vertex="1">
                    <mxGeometry x="1327" y="-1790" width="160" height="60" as="geometry"/>
                </mxCell>
                <mxCell id="229" style="edgeStyle=none;html=1;" parent="1" source="126" target="170" edge="1">
                    <mxGeometry relative="1" as="geometry"/>
                </mxCell>
                <mxCell id="126" value="&lt;div&gt;&lt;/div&gt;🐞&amp;nbsp; - GT4Py&lt;br&gt;&lt;br&gt;2D gt4py.storages available?" style="rounded=0;whiteSpace=wrap;html=1;strokeColor=#FF0000;" parent="1" vertex="1">
                    <mxGeometry x="400" y="920" width="170" height="60" as="geometry"/>
                </mxCell>
                <mxCell id="129" style="edgeStyle=none;html=1;entryX=1;entryY=0.5;entryDx=0;entryDy=0;strokeColor=#F0F0F0;" parent="1" source="128" target="15" edge="1">
                    <mxGeometry relative="1" as="geometry">
                        <Array as="points">
                            <mxPoint x="670" y="-480"/>
                            <mxPoint x="670" y="-580"/>
                        </Array>
                    </mxGeometry>
                </mxCell>
                <mxCell id="140" style="edgeStyle=none;html=1;strokeColor=#F0F0F0;entryX=0;entryY=0.5;entryDx=0;entryDy=0;" parent="1" source="128" target="141" edge="1">
                    <mxGeometry relative="1" as="geometry">
                        <mxPoint x="2382.564227764423" y="-480" as="targetPoint"/>
                        <Array as="points">
                            <mxPoint x="1270" y="-670"/>
                        </Array>
                    </mxGeometry>
                </mxCell>
                <mxCell id="128" value="&lt;div&gt;&lt;/div&gt;&lt;b&gt;{...}&lt;/b&gt;&amp;nbsp; - GEOS&lt;br&gt;Integration&lt;br&gt;MAPLPy" style="rounded=0;whiteSpace=wrap;html=1;" parent="1" vertex="1">
                    <mxGeometry x="760" y="-510" width="120" height="60" as="geometry"/>
                </mxCell>
                <mxCell id="131" style="edgeStyle=none;html=1;strokeColor=#F0F0F0;dashed=1;dashPattern=8 8;" parent="1" source="130" target="14" edge="1">
                    <mxGeometry relative="1" as="geometry"/>
                </mxCell>
                <mxCell id="130" value="&lt;div&gt;&lt;/div&gt;&lt;b&gt;{...}&lt;/b&gt;&amp;nbsp; - GEOS&lt;br&gt;Integration&lt;br&gt;Generator of 3-way bridge" style="rounded=0;whiteSpace=wrap;html=1;" parent="1" vertex="1">
                    <mxGeometry x="60" y="-440" width="170" height="60" as="geometry"/>
                </mxCell>
                <mxCell id="133" style="edgeStyle=none;html=1;dashed=1;dashPattern=8 8;strokeColor=#F0F0F0;" parent="1" source="132" edge="1">
                    <mxGeometry relative="1" as="geometry">
                        <mxPoint x="680" y="-730" as="targetPoint"/>
                        <Array as="points">
                            <mxPoint x="770" y="-730"/>
                        </Array>
                    </mxGeometry>
                </mxCell>
                <mxCell id="132" value="&lt;b&gt;{...}&lt;/b&gt; - GEOS&lt;br&gt;Integration&lt;br&gt;Benchmark tooling" style="rounded=0;whiteSpace=wrap;html=1;" parent="1" vertex="1">
                    <mxGeometry x="830" y="-800" width="180" height="60" as="geometry"/>
                </mxCell>
                <mxCell id="142" style="edgeStyle=none;html=1;strokeColor=#F0F0F0;" parent="1" source="139" target="141" edge="1">
                    <mxGeometry relative="1" as="geometry"/>
                </mxCell>
                <mxCell id="139" value="&lt;div&gt;&lt;/div&gt;&lt;b&gt;{...}&lt;/b&gt; - pyFV3/GEOS&lt;br&gt;&lt;br&gt;Port glue code" style="rounded=0;whiteSpace=wrap;html=1;" parent="1" vertex="1">
                    <mxGeometry x="1580" y="-530" width="190" height="70" as="geometry"/>
                </mxCell>
                <mxCell id="144" style="edgeStyle=none;html=1;strokeColor=#F0F0F0;" parent="1" source="141" target="143" edge="1">
                    <mxGeometry relative="1" as="geometry"/>
                </mxCell>
                <mxCell id="141" value="🌏 - GEOS&lt;br&gt;FVGridComp&lt;br&gt;Numerical Validation" style="shape=hexagon;perimeter=hexagonPerimeter2;whiteSpace=wrap;html=1;fixedSize=1;" parent="1" vertex="1">
                    <mxGeometry x="1650" y="-700" width="230" height="60" as="geometry"/>
                </mxCell>
                <mxCell id="145" style="edgeStyle=none;html=1;strokeColor=#F0F0F0;" parent="1" source="143" target="146" edge="1">
                    <mxGeometry relative="1" as="geometry">
                        <mxPoint x="2990" y="-880.0000000000002" as="targetPoint"/>
                    </mxGeometry>
                </mxCell>
                <mxCell id="317" style="edgeStyle=none;html=1;" edge="1" parent="1" source="143" target="186">
                    <mxGeometry relative="1" as="geometry"/>
                </mxCell>
                <mxCell id="143" value="🌏 - GEOS&lt;br&gt;FVGridComp&lt;br&gt;Scientific Validation" style="shape=hexagon;perimeter=hexagonPerimeter2;whiteSpace=wrap;html=1;fixedSize=1;" parent="1" vertex="1">
                    <mxGeometry x="1650" y="-950" width="230" height="60" as="geometry"/>
                </mxCell>
                <mxCell id="146" value="🌏 - GEOS&lt;br&gt;FVGridComp&lt;br&gt;Benchmark" style="shape=hexagon;perimeter=hexagonPerimeter2;whiteSpace=wrap;html=1;fixedSize=1;" parent="1" vertex="1">
                    <mxGeometry x="1650" y="-1120" width="230" height="60" as="geometry"/>
                </mxCell>
                <mxCell id="148" value="🖋 - Docs&lt;br&gt;&lt;br&gt;User Manual" style="shape=hexagon;perimeter=rectanglePerimeter;whiteSpace=wrap;html=1;fixedSize=1;" parent="1" vertex="1">
                    <mxGeometry x="-650" y="-730" width="230" height="60" as="geometry"/>
                </mxCell>
                <mxCell id="152" value="&lt;div&gt;&lt;/div&gt;&lt;b&gt;{...}&lt;/b&gt; - NDSL&lt;br&gt;Orchestration&lt;br&gt;Expand on Quantity" style="rounded=0;whiteSpace=wrap;html=1;" parent="1" vertex="1">
                    <mxGeometry x="110" y="1060" width="190" height="60" as="geometry"/>
                </mxCell>
                <mxCell id="158" style="edgeStyle=none;html=1;strokeColor=#F0F0F0;" parent="1" source="153" target="148" edge="1">
                    <mxGeometry relative="1" as="geometry"/>
                </mxCell>
                <mxCell id="153" value="&lt;div&gt;&lt;/div&gt;🖋 - Docs&lt;br&gt;&lt;br&gt;How to stencils / to model" style="rounded=0;whiteSpace=wrap;html=1;" parent="1" vertex="1">
                    <mxGeometry x="-850" y="-450" width="190" height="60" as="geometry"/>
                </mxCell>
                <mxCell id="157" style="edgeStyle=none;html=1;strokeColor=#F0F0F0;" parent="1" source="154" target="148" edge="1">
                    <mxGeometry relative="1" as="geometry">
                        <mxPoint x="-640" y="-360" as="targetPoint"/>
                    </mxGeometry>
                </mxCell>
                <mxCell id="154" value="&lt;div&gt;&lt;/div&gt;🖋 - Docs&lt;br&gt;&lt;br&gt;How to Port / Translate" style="rounded=0;whiteSpace=wrap;html=1;" parent="1" vertex="1">
                    <mxGeometry x="-630" y="-450" width="190" height="60" as="geometry"/>
                </mxCell>
                <mxCell id="156" style="edgeStyle=none;html=1;strokeColor=#F0F0F0;" parent="1" source="155" target="148" edge="1">
                    <mxGeometry relative="1" as="geometry">
                        <mxPoint x="-630" y="-380" as="targetPoint"/>
                    </mxGeometry>
                </mxCell>
                <mxCell id="155" value="&lt;div&gt;&lt;/div&gt;🖋 - Docs&lt;br&gt;&lt;br&gt;Quickstart / Setup" style="rounded=0;whiteSpace=wrap;html=1;" parent="1" vertex="1">
                    <mxGeometry x="-400" y="-450" width="190" height="60" as="geometry"/>
                </mxCell>
                <mxCell id="165" style="edgeStyle=none;html=1;entryX=0;entryY=0.5;entryDx=0;entryDy=0;" parent="1" source="159" target="166" edge="1">
                    <mxGeometry relative="1" as="geometry">
                        <mxPoint x="680" y="-1210" as="targetPoint"/>
                        <Array as="points">
                            <mxPoint y="-1195"/>
                        </Array>
                    </mxGeometry>
                </mxCell>
                <mxCell id="159" value="&lt;div&gt;&lt;/div&gt;&lt;b&gt;{...}&lt;/b&gt; - NDSL&lt;br&gt;Orchestration&lt;br&gt;How to do loop unrolling on tracers or any 4D arrays" style="rounded=0;whiteSpace=wrap;html=1;" parent="1" vertex="1">
                    <mxGeometry x="-90" y="1060" width="190" height="60" as="geometry"/>
                </mxCell>
                <mxCell id="162" value="🌏 - GEOS&lt;br&gt;Moist&lt;br&gt;Benchmark" style="shape=hexagon;perimeter=hexagonPerimeter2;whiteSpace=wrap;html=1;fixedSize=1;" parent="1" vertex="1">
                    <mxGeometry x="520" y="-1340" width="160" height="60" as="geometry"/>
                </mxCell>
                <mxCell id="167" value="" style="edgeStyle=none;html=1;strokeColor=#F0F0F0;exitX=0.5;exitY=0;exitDx=0;exitDy=0;" parent="1" source="166" target="162" edge="1">
                    <mxGeometry relative="1" as="geometry"/>
                </mxCell>
                <mxCell id="166" value="🚀&amp;nbsp;- pyMoist&lt;br&gt;&lt;br&gt;Orchestrate&lt;div&gt;&lt;/div&gt;" style="rounded=0;whiteSpace=wrap;html=1;" parent="1" vertex="1">
                    <mxGeometry x="515" y="-1220" width="170" height="50" as="geometry"/>
                </mxCell>
                <mxCell id="299" style="edgeStyle=none;html=1;" parent="1" source="170" target="297" edge="1">
                    <mxGeometry relative="1" as="geometry"/>
                </mxCell>
                <mxCell id="170" value="&lt;div&gt;&lt;/div&gt;🐞&amp;nbsp; - GT4Py&lt;br&gt;&lt;br&gt;Temporaries are bugged ?" style="rounded=0;whiteSpace=wrap;html=1;strokeColor=#FF0000;" parent="1" vertex="1">
                    <mxGeometry x="400" y="810" width="170" height="60" as="geometry"/>
                </mxCell>
                <mxCell id="174" value="&lt;div&gt;&lt;/div&gt;&lt;b&gt;{...}&lt;/b&gt; - NDSL&lt;br&gt;Pipeline&lt;br&gt;Simplify configuration &amp;amp; backends" style="rounded=0;whiteSpace=wrap;html=1;" parent="1" vertex="1">
                    <mxGeometry x="310" y="1060" width="190" height="60" as="geometry"/>
                </mxCell>
                <mxCell id="175" value="&lt;div&gt;&lt;/div&gt;&lt;b&gt;{...}&lt;/b&gt; - NDSL&lt;br&gt;Pipeline&lt;br&gt;Move GT4Py/DaCe import in NDSL" style="rounded=0;whiteSpace=wrap;html=1;" parent="1" vertex="1">
                    <mxGeometry x="110" y="1160" width="190" height="60" as="geometry"/>
                </mxCell>
                <mxCell id="178" style="edgeStyle=none;html=1;strokeColor=#F0F0F0;" parent="1" source="177" target="36" edge="1">
                    <mxGeometry relative="1" as="geometry"/>
                </mxCell>
                <mxCell id="177" value="&lt;div&gt;&lt;/div&gt;{...} - pyFV3&lt;br&gt;Orchestration&lt;br&gt;MPI All Reduce calls" style="rounded=0;whiteSpace=wrap;html=1;" parent="1" vertex="1">
                    <mxGeometry x="1680" y="-70" width="190" height="70" as="geometry"/>
                </mxCell>
                <mxCell id="179" value="&lt;div&gt;&lt;/div&gt;&lt;b&gt;{...}&lt;/b&gt; - GT4Py/NDSL&lt;br&gt;Debug&lt;br&gt;Numerical prints/dump" style="rounded=0;whiteSpace=wrap;html=1;" parent="1" vertex="1">
                    <mxGeometry x="-90" y="1260" width="190" height="60" as="geometry"/>
                </mxCell>
                <mxCell id="181" value="&lt;div&gt;&lt;/div&gt;&lt;b&gt;{...}&lt;/b&gt; - GT4Py/NDSL&lt;br&gt;Debug&lt;br&gt;Code flow" style="rounded=0;whiteSpace=wrap;html=1;" parent="1" vertex="1">
                    <mxGeometry x="110" y="1260" width="190" height="60" as="geometry"/>
                </mxCell>
                <mxCell id="190" style="edgeStyle=none;html=1;" parent="1" source="186" target="189" edge="1">
                    <mxGeometry relative="1" as="geometry">
                        <mxPoint x="1220" y="-1730" as="targetPoint"/>
                    </mxGeometry>
                </mxCell>
                <mxCell id="186" value="🌏 - GEOS&lt;br&gt;Accelerate FP&lt;br&gt;Scientific Validation" style="shape=hexagon;perimeter=hexagonPerimeter2;whiteSpace=wrap;html=1;fixedSize=1;" parent="1" vertex="1">
                    <mxGeometry x="1070" y="-950" width="160" height="60" as="geometry"/>
                </mxCell>
                <mxCell id="201" style="edgeStyle=none;html=1;" parent="1" source="189" target="214" edge="1">
                    <mxGeometry relative="1" as="geometry">
                        <mxPoint x="1000" y="-1260" as="sourcePoint"/>
                    </mxGeometry>
                </mxCell>
                <mxCell id="189" value="🌏 - GEOS&lt;br&gt;Accelerate FP&lt;br&gt;Benchmark" style="shape=hexagon;perimeter=hexagonPerimeter2;whiteSpace=wrap;html=1;fixedSize=1;" parent="1" vertex="1">
                    <mxGeometry x="1070" y="-1290" width="160" height="60" as="geometry"/>
                </mxCell>
                <mxCell id="195" style="edgeStyle=none;html=1;" parent="1" source="192" target="194" edge="1">
                    <mxGeometry relative="1" as="geometry"/>
                </mxCell>
                <mxCell id="192" value="🌏 - GEOS&lt;br&gt;Dynamics (v12)&lt;br&gt;Validation" style="shape=hexagon;perimeter=hexagonPerimeter2;whiteSpace=wrap;html=1;fixedSize=1;" parent="1" vertex="1">
                    <mxGeometry x="1597" y="-1670" width="160" height="60" as="geometry"/>
                </mxCell>
                <mxCell id="198" style="edgeStyle=none;html=1;" parent="1" source="194" target="196" edge="1">
                    <mxGeometry relative="1" as="geometry"/>
                </mxCell>
                <mxCell id="194" value="🌏 - GEOS&lt;br&gt;Dynamics (v12)&lt;br&gt;Benchmark" style="shape=hexagon;perimeter=hexagonPerimeter2;whiteSpace=wrap;html=1;fixedSize=1;" parent="1" vertex="1">
                    <mxGeometry x="1597" y="-1800" width="160" height="60" as="geometry"/>
                </mxCell>
                <mxCell id="200" style="edgeStyle=none;html=1;" parent="1" source="196" target="199" edge="1">
                    <mxGeometry relative="1" as="geometry"/>
                </mxCell>
                <mxCell id="196" value="🌏 - GEOS&lt;br&gt;FP (v12)&lt;br&gt;Scientific Validation" style="shape=hexagon;perimeter=hexagonPerimeter2;whiteSpace=wrap;html=1;fixedSize=1;" parent="1" vertex="1">
                    <mxGeometry x="1457" y="-1930" width="160" height="60" as="geometry"/>
                </mxCell>
                <mxCell id="199" value="🌏 - GEOS&lt;br&gt;FP (v12)&lt;br&gt;Benchmark" style="shape=hexagon;perimeter=hexagonPerimeter2;whiteSpace=wrap;html=1;fixedSize=1;" parent="1" vertex="1">
                    <mxGeometry x="1457" y="-2030" width="160" height="60" as="geometry"/>
                </mxCell>
                <mxCell id="203" style="edgeStyle=none;html=1;" parent="1" source="202" target="119" edge="1">
                    <mxGeometry relative="1" as="geometry"/>
                </mxCell>
                <object label="&lt;div&gt;&lt;/div&gt;&lt;b&gt;{...}&lt;/b&gt;&amp;nbsp;- pyMoist&lt;br&gt;GFDL&lt;br&gt;Update to v12" id="202">
                    <mxCell style="rounded=0;whiteSpace=wrap;html=1;" parent="1" vertex="1">
                        <mxGeometry x="1357" y="-1480" width="110" height="60" as="geometry"/>
                    </mxCell>
                </object>
                <mxCell id="206" style="edgeStyle=none;html=1;" parent="1" source="204" target="119" edge="1">
                    <mxGeometry relative="1" as="geometry"/>
                </mxCell>
                <object label="&lt;div&gt;&lt;/div&gt;&lt;b&gt;{...}&lt;/b&gt;&amp;nbsp;- pyMoist&lt;br&gt;GF&lt;br&gt;Update to v12" id="204">
                    <mxCell style="rounded=0;whiteSpace=wrap;html=1;" parent="1" vertex="1">
                        <mxGeometry x="1487" y="-1480" width="110" height="60" as="geometry"/>
                    </mxCell>
                </object>
                <mxCell id="208" style="edgeStyle=none;html=1;" parent="1" source="207" target="192" edge="1">
                    <mxGeometry relative="1" as="geometry"/>
                </mxCell>
                <object label="&lt;div&gt;&lt;/div&gt;&lt;b&gt;{...}&lt;/b&gt;&amp;nbsp;- pyFV3&lt;br&gt;Dynamics&lt;br&gt;Update to v12" id="207">
                    <mxCell style="rounded=0;whiteSpace=wrap;html=1;" parent="1" vertex="1">
                        <mxGeometry x="1617" y="-1480" width="110" height="60" as="geometry"/>
                    </mxCell>
                </object>
                <mxCell id="215" style="edgeStyle=none;html=1;" parent="1" source="214" target="113" edge="1">
                    <mxGeometry relative="1" as="geometry"/>
                </mxCell>
                <mxCell id="216" style="edgeStyle=none;html=1;" parent="1" source="214" target="202" edge="1">
                    <mxGeometry relative="1" as="geometry"/>
                </mxCell>
                <mxCell id="217" style="edgeStyle=none;html=1;" parent="1" source="214" target="204" edge="1">
                    <mxGeometry relative="1" as="geometry"/>
                </mxCell>
                <mxCell id="218" style="edgeStyle=none;html=1;" parent="1" source="214" target="207" edge="1">
                    <mxGeometry relative="1" as="geometry"/>
                </mxCell>
                <mxCell id="214" value="GMAO Release&lt;br&gt;v12" style="shape=parallelogram;perimeter=parallelogramPerimeter;whiteSpace=wrap;html=1;fixedSize=1;" parent="1" vertex="1">
                    <mxGeometry x="1427" y="-1290" width="120" height="60" as="geometry"/>
                </mxCell>
                <mxCell id="223" style="edgeStyle=none;html=1;" parent="1" source="222" target="45" edge="1">
                    <mxGeometry relative="1" as="geometry"/>
                </mxCell>
                <mxCell id="222" value="&lt;div&gt;&lt;/div&gt;&lt;b&gt;{...}&lt;/b&gt;&amp;nbsp; - GT4Py/DaCe&lt;br&gt;&lt;br&gt;Update to Dace main" style="rounded=0;whiteSpace=wrap;html=1;" parent="1" vertex="1">
                    <mxGeometry x="2130" y="1120" width="220" height="60" as="geometry"/>
                </mxCell>
                <mxCell id="227" style="edgeStyle=none;html=1;" parent="1" source="224" target="45" edge="1">
                    <mxGeometry relative="1" as="geometry"/>
                </mxCell>
                <mxCell id="224" value="&lt;div&gt;&lt;/div&gt;&lt;b&gt;{...}&lt;/b&gt;&amp;nbsp; - DaCe&lt;br&gt;&lt;br&gt;Stree Trivial Merge" style="rounded=0;whiteSpace=wrap;html=1;" parent="1" vertex="1">
                    <mxGeometry x="2930" y="1120" width="220" height="60" as="geometry"/>
                </mxCell>
                <mxCell id="228" style="edgeStyle=none;html=1;" parent="1" source="225" target="45" edge="1">
                    <mxGeometry relative="1" as="geometry"/>
                </mxCell>
                <mxCell id="225" value="&lt;div&gt;&lt;/div&gt;&lt;b&gt;{...}&lt;/b&gt;&amp;nbsp; - DaCe&lt;br&gt;&lt;br&gt;Stree Trivial Axis Merge" style="rounded=0;whiteSpace=wrap;html=1;" parent="1" vertex="1">
                    <mxGeometry x="2670" y="1120" width="220" height="60" as="geometry"/>
                </mxCell>
                <mxCell id="285" style="edgeStyle=none;html=1;" parent="1" source="233" target="284" edge="1">
                    <mxGeometry relative="1" as="geometry"/>
                </mxCell>
                <mxCell id="287" style="edgeStyle=none;html=1;" parent="1" source="233" target="234" edge="1">
                    <mxGeometry relative="1" as="geometry">
                        <Array as="points">
                            <mxPoint x="-740" y="530"/>
                        </Array>
                    </mxGeometry>
                </mxCell>
                <mxCell id="233" value="&lt;div&gt;&lt;/div&gt;&lt;b&gt;{...}&lt;/b&gt; - Serialbox&lt;br&gt;&lt;br&gt;Serialize string" style="rounded=0;whiteSpace=wrap;html=1;" parent="1" vertex="1">
                    <mxGeometry x="-840" y="1040" width="210" height="70" as="geometry"/>
                </mxCell>
                <mxCell id="234" value="&lt;div&gt;&lt;/div&gt;🔀&amp;nbsp;- Serialbox&lt;br&gt;&lt;br&gt;Merge ppser to mainline" style="rounded=0;whiteSpace=wrap;html=1;" parent="1" vertex="1">
                    <mxGeometry x="-680" y="500" width="210" height="60" as="geometry"/>
                </mxCell>
                <mxCell id="286" style="edgeStyle=none;html=1;" parent="1" source="235" target="284" edge="1">
                    <mxGeometry relative="1" as="geometry">
                        <Array as="points">
                            <mxPoint x="-970" y="650"/>
                            <mxPoint x="-740" y="650"/>
                        </Array>
                    </mxGeometry>
                </mxCell>
                <mxCell id="235" value="&lt;div&gt;&lt;/div&gt;🐞&amp;nbsp;- Serialbox&lt;br&gt;To NetCDF&lt;br&gt;Ranks Inconsistency" style="rounded=0;whiteSpace=wrap;html=1;" parent="1" vertex="1">
                    <mxGeometry x="-1070" y="1040" width="210" height="60" as="geometry"/>
                </mxCell>
                <mxCell id="236" value="🖋 - Docs&lt;br&gt;&lt;br&gt;Technical documentation" style="shape=hexagon;perimeter=rectanglePerimeter;whiteSpace=wrap;html=1;fixedSize=1;" parent="1" vertex="1">
                    <mxGeometry x="-1470" y="-720" width="230" height="60" as="geometry"/>
                </mxCell>
                <mxCell id="237" style="edgeStyle=none;html=1;strokeColor=#F0F0F0;" parent="1" source="238" target="236" edge="1">
                    <mxGeometry relative="1" as="geometry"/>
                </mxCell>
                <mxCell id="238" value="&lt;div&gt;&lt;/div&gt;🖋 - Docs&lt;br&gt;&lt;br&gt;Orchestration" style="rounded=0;whiteSpace=wrap;html=1;" parent="1" vertex="1">
                    <mxGeometry x="-1560" y="-450" width="190" height="60" as="geometry"/>
                </mxCell>
                <mxCell id="239" style="edgeStyle=none;html=1;strokeColor=#F0F0F0;" parent="1" source="240" target="236" edge="1">
                    <mxGeometry relative="1" as="geometry">
                        <mxPoint x="-1350" y="-360" as="targetPoint"/>
                    </mxGeometry>
                </mxCell>
                <mxCell id="240" value="&lt;div&gt;&lt;/div&gt;🖋 - Docs&lt;br&gt;&lt;br&gt;DaCe stencil Backend&amp;nbsp;" style="rounded=0;whiteSpace=wrap;html=1;" parent="1" vertex="1">
                    <mxGeometry x="-1340" y="-450" width="190" height="60" as="geometry"/>
                </mxCell>
                <mxCell id="241" style="edgeStyle=none;html=1;strokeColor=#F0F0F0;" parent="1" source="242" target="236" edge="1">
                    <mxGeometry relative="1" as="geometry">
                        <mxPoint x="-1340" y="-380" as="targetPoint"/>
                    </mxGeometry>
                </mxCell>
                <mxCell id="242" value="&lt;div&gt;&lt;/div&gt;🖋 - Docs&lt;br&gt;&lt;br&gt;Debug/Numpy Backend" style="rounded=0;whiteSpace=wrap;html=1;" parent="1" vertex="1">
                    <mxGeometry x="-1110" y="-450" width="190" height="60" as="geometry"/>
                </mxCell>
                <mxCell id="243" value="🚀&amp;nbsp;- NDSL&lt;br&gt;Performance&lt;br&gt;GPU for dynamics" style="shape=hexagon;perimeter=hexagonPerimeter2;whiteSpace=wrap;html=1;fixedSize=1;" parent="1" vertex="1">
                    <mxGeometry x="2520" y="-160" width="230" height="60" as="geometry"/>
                </mxCell>
                <mxCell id="246" style="edgeStyle=none;html=1;" parent="1" source="244" target="243" edge="1">
                    <mxGeometry relative="1" as="geometry">
                        <mxPoint x="2650" y="-230" as="targetPoint"/>
                    </mxGeometry>
                </mxCell>
                <mxCell id="244" value="&lt;div&gt;&lt;/div&gt;&lt;b&gt;{...}&lt;/b&gt;&amp;nbsp; - DaCe&lt;br&gt;&lt;br&gt;Stree Aggresive Merge" style="rounded=0;whiteSpace=wrap;html=1;" parent="1" vertex="1">
                    <mxGeometry x="2530" y="-30" width="220" height="60" as="geometry"/>
                </mxCell>
                <mxCell id="252" style="edgeStyle=none;html=1;" parent="1" source="247" target="251" edge="1">
                    <mxGeometry relative="1" as="geometry"/>
                </mxCell>
                <mxCell id="247" value="&lt;div&gt;&lt;/div&gt;&lt;b&gt;{...}&lt;/b&gt;&amp;nbsp; - DaCe&lt;br&gt;&lt;br&gt;OpenMP scheudling w/ hardware look" style="rounded=0;whiteSpace=wrap;html=1;" parent="1" vertex="1">
                    <mxGeometry x="2800" y="-30" width="220" height="60" as="geometry"/>
                </mxCell>
                <mxCell id="253" style="edgeStyle=none;html=1;" parent="1" source="248" target="251" edge="1">
                    <mxGeometry relative="1" as="geometry"/>
                </mxCell>
                <mxCell id="248" value="&lt;div&gt;&lt;/div&gt;&lt;b&gt;{...}&lt;/b&gt;&amp;nbsp; - DaCe&lt;br&gt;&lt;br&gt;JIT tiling with hardware look" style="rounded=0;whiteSpace=wrap;html=1;" parent="1" vertex="1">
                    <mxGeometry x="3070" y="-30" width="220" height="60" as="geometry"/>
                </mxCell>
                <mxCell id="251" value="🚀&amp;nbsp;- NDSL&lt;br&gt;Performance&lt;br&gt;CPU for dynamics" style="shape=hexagon;perimeter=hexagonPerimeter2;whiteSpace=wrap;html=1;fixedSize=1;" parent="1" vertex="1">
                    <mxGeometry x="2930" y="-160" width="230" height="60" as="geometry"/>
                </mxCell>
                <mxCell id="260" style="edgeStyle=none;html=1;" parent="1" source="257" target="2" edge="1">
                    <mxGeometry relative="1" as="geometry"/>
                </mxCell>
                <mxCell id="257" value="&lt;b&gt;{...}&lt;/b&gt;&amp;nbsp;- pyMoist&lt;br&gt;Port&lt;br&gt;UW driver&amp;nbsp;code" style="rounded=0;whiteSpace=wrap;html=1;" parent="1" vertex="1">
                    <mxGeometry x="240" y="30" width="120" height="60" as="geometry"/>
                </mxCell>
                <mxCell id="259" style="edgeStyle=none;html=1;" parent="1" source="258" target="257" edge="1">
                    <mxGeometry relative="1" as="geometry"/>
                </mxCell>
                <mxCell id="258" value="&lt;b&gt;{...}&lt;/b&gt;&amp;nbsp;- pyMoist&lt;br&gt;Port&lt;br&gt;UW compute inv code" style="rounded=0;whiteSpace=wrap;html=1;" parent="1" vertex="1">
                    <mxGeometry x="225" y="120" width="150" height="60" as="geometry"/>
                </mxCell>
                <mxCell id="279" style="edgeStyle=none;html=1;" parent="1" source="261" target="276" edge="1">
                    <mxGeometry relative="1" as="geometry">
                        <Array as="points">
                            <mxPoint x="-200" y="1040"/>
                        </Array>
                    </mxGeometry>
                </mxCell>
                <mxCell id="261" value="&lt;div&gt;&lt;/div&gt;&lt;b&gt;{...}&lt;/b&gt; - NDSL&lt;br&gt;Translate&lt;br&gt;Test orchestration parsing" style="rounded=0;whiteSpace=wrap;html=1;" parent="1" vertex="1">
                    <mxGeometry x="-520" y="1010" width="190" height="60" as="geometry"/>
                </mxCell>
                <mxCell id="280" style="edgeStyle=none;html=1;" parent="1" source="262" target="276" edge="1">
                    <mxGeometry relative="1" as="geometry">
                        <Array as="points">
                            <mxPoint x="-200" y="1130"/>
                        </Array>
                    </mxGeometry>
                </mxCell>
                <mxCell id="262" value="&lt;div&gt;&lt;/div&gt;&lt;b&gt;{...}&lt;/b&gt; - NDSL&lt;br&gt;Translate&lt;br&gt;Quantity Wrapper" style="rounded=0;whiteSpace=wrap;html=1;" parent="1" vertex="1">
                    <mxGeometry x="-520" y="1100" width="190" height="60" as="geometry"/>
                </mxCell>
                <mxCell id="264" style="edgeStyle=none;html=1;" parent="1" source="263" target="141" edge="1">
                    <mxGeometry relative="1" as="geometry"/>
                </mxCell>
                <mxCell id="263" value="&lt;div&gt;&lt;/div&gt;&lt;b&gt;{...}&lt;/b&gt; - pyFV3/GEOS&lt;br&gt;&lt;br&gt;Integrate SubGridZ" style="rounded=0;whiteSpace=wrap;html=1;" parent="1" vertex="1">
                    <mxGeometry x="1790" y="-530" width="190" height="70" as="geometry"/>
                </mxCell>
                <mxCell id="266" style="edgeStyle=none;html=1;" parent="1" source="265" target="263" edge="1">
                    <mxGeometry relative="1" as="geometry"/>
                </mxCell>
                <mxCell id="265" value="&lt;div&gt;&lt;/div&gt;&lt;b&gt;{...}&lt;/b&gt; - pyFV3/GEOS&lt;br&gt;&lt;br&gt;SubGridZ - expand to N tracers" style="rounded=0;whiteSpace=wrap;html=1;" parent="1" vertex="1">
                    <mxGeometry x="1790" y="-430" width="190" height="70" as="geometry"/>
                </mxCell>
                <mxCell id="268" style="edgeStyle=none;html=1;" parent="1" source="267" target="37" edge="1">
                    <mxGeometry relative="1" as="geometry"/>
                </mxCell>
                <mxCell id="267" value="&lt;div&gt;&lt;/div&gt;{...} - pyFV3&lt;br&gt;&lt;br&gt;Tracers as 4D / Accessible" style="rounded=0;whiteSpace=wrap;html=1;" parent="1" vertex="1">
                    <mxGeometry x="1380" y="210" width="190" height="70" as="geometry"/>
                </mxCell>
                <mxCell id="271" style="edgeStyle=none;html=1;" parent="1" source="269" target="267" edge="1">
                    <mxGeometry relative="1" as="geometry">
                        <Array as="points">
                            <mxPoint x="1890" y="600"/>
                            <mxPoint x="1480" y="600"/>
                        </Array>
                    </mxGeometry>
                </mxCell>
                <mxCell id="269" value="&lt;div&gt;&lt;/div&gt;{...} - NDSL&lt;br&gt;&lt;br&gt;4D / Tracers utils" style="rounded=0;whiteSpace=wrap;html=1;" parent="1" vertex="1">
                    <mxGeometry x="1790" y="1200" width="190" height="70" as="geometry"/>
                </mxCell>
                <mxCell id="281" style="edgeStyle=none;html=1;" parent="1" source="272" target="276" edge="1">
                    <mxGeometry relative="1" as="geometry">
                        <Array as="points">
                            <mxPoint x="-200" y="1230"/>
                        </Array>
                    </mxGeometry>
                </mxCell>
                <mxCell id="272" value="&lt;div&gt;&lt;/div&gt;&lt;b&gt;{...}&lt;/b&gt;🖋&amp;nbsp;- NDSL&lt;br&gt;Translate&lt;br&gt;Check (and doc) 4D array" style="rounded=0;whiteSpace=wrap;html=1;" parent="1" vertex="1">
                    <mxGeometry x="-520" y="1200" width="190" height="60" as="geometry"/>
                </mxCell>
                <mxCell id="282" style="edgeStyle=none;html=1;" parent="1" source="273" target="276" edge="1">
                    <mxGeometry relative="1" as="geometry">
                        <Array as="points">
                            <mxPoint x="-200" y="1310"/>
                        </Array>
                    </mxGeometry>
                </mxCell>
                <mxCell id="273" value="&lt;div&gt;&lt;/div&gt;&lt;b&gt;{...}&lt;/b&gt;🖋&amp;nbsp;- NDSL&lt;br&gt;Translate&lt;br&gt;Extend Success &amp;amp; Failures results" style="rounded=0;whiteSpace=wrap;html=1;" parent="1" vertex="1">
                    <mxGeometry x="-520" y="1280" width="190" height="60" as="geometry"/>
                </mxCell>
                <mxCell id="283" style="edgeStyle=none;html=1;" parent="1" source="274" target="276" edge="1">
                    <mxGeometry relative="1" as="geometry">
                        <Array as="points">
                            <mxPoint x="-200" y="1400"/>
                        </Array>
                    </mxGeometry>
                </mxCell>
                <mxCell id="274" value="&lt;div&gt;&lt;/div&gt;&lt;b&gt;{...}&lt;/b&gt;🖋&amp;nbsp;- NDSL&lt;br&gt;Translate&lt;br&gt;Callable without the pytest harness" style="rounded=0;whiteSpace=wrap;html=1;" parent="1" vertex="1">
                    <mxGeometry x="-520" y="1370" width="190" height="60" as="geometry"/>
                </mxCell>
                <mxCell id="275" value="&lt;div&gt;&lt;/div&gt;&lt;b&gt;{...}&lt;/b&gt; - GT4Py/NDSL&lt;br&gt;Debug&lt;br&gt;Code flow" style="rounded=0;whiteSpace=wrap;html=1;" parent="1" vertex="1">
                    <mxGeometry x="310" y="1260" width="190" height="60" as="geometry"/>
                </mxCell>
                <mxCell id="277" style="edgeStyle=none;html=1;" parent="1" source="276" target="154" edge="1">
                    <mxGeometry relative="1" as="geometry">
                        <Array as="points">
                            <mxPoint x="-530" y="400"/>
                        </Array>
                    </mxGeometry>
                </mxCell>
                <mxCell id="278" style="edgeStyle=none;html=1;dashed=1;dashPattern=8 8;" parent="1" source="276" target="313" edge="1">
                    <mxGeometry relative="1" as="geometry">
                        <Array as="points">
                            <mxPoint x="695" y="400"/>
                        </Array>
                    </mxGeometry>
                </mxCell>
                <mxCell id="276" value="🖋&amp;nbsp;- Docs&lt;br&gt;&lt;br&gt;Experimental feature set" style="shape=hexagon;perimeter=hexagonPerimeter2;whiteSpace=wrap;html=1;fixedSize=1;" parent="1" vertex="1">
                    <mxGeometry x="-310" y="370" width="230" height="60" as="geometry"/>
                </mxCell>
                <mxCell id="288" style="edgeStyle=none;html=1;" parent="1" source="284" target="154" edge="1">
                    <mxGeometry relative="1" as="geometry">
                        <Array as="points">
                            <mxPoint x="-530" y="150"/>
                        </Array>
                    </mxGeometry>
                </mxCell>
                <mxCell id="284" value="🖋&amp;nbsp;- Docs&lt;br&gt;&lt;br&gt;Experimental feature set" style="shape=hexagon;perimeter=hexagonPerimeter2;whiteSpace=wrap;html=1;fixedSize=1;" parent="1" vertex="1">
                    <mxGeometry x="-856" y="372" width="230" height="60" as="geometry"/>
                </mxCell>
                <mxCell id="290" value="🗣&amp;nbsp;- Nvidia&lt;br&gt;&lt;br&gt;Examples of model code w/ opt" style="shape=hexagon;perimeter=hexagonPerimeter2;whiteSpace=wrap;html=1;fixedSize=1;" parent="1" vertex="1">
                    <mxGeometry x="2890" y="200" width="230" height="60" as="geometry"/>
                </mxCell>
                <mxCell id="291" value="🗣&amp;nbsp;- Nvidia&lt;br&gt;&lt;br&gt;Examples of model code" style="shape=hexagon;perimeter=hexagonPerimeter2;whiteSpace=wrap;html=1;fixedSize=1;" parent="1" vertex="1">
                    <mxGeometry x="-2160" y="-590" width="230" height="60" as="geometry"/>
                </mxCell>
                <mxCell id="292" value="🗣&amp;nbsp;- GISS&lt;br&gt;&lt;br&gt;pyFV3 for Model E" style="shape=hexagon;perimeter=hexagonPerimeter2;whiteSpace=wrap;html=1;fixedSize=1;" parent="1" vertex="1">
                    <mxGeometry x="1120" y="-530" width="230" height="60" as="geometry"/>
                </mxCell>
                <mxCell id="295" style="edgeStyle=none;html=1;" parent="1" source="294" target="236" edge="1">
                    <mxGeometry relative="1" as="geometry"/>
                </mxCell>
                <mxCell id="294" value="&lt;div&gt;&lt;/div&gt;🖋 - Docs&lt;br&gt;&lt;br&gt;GT4Py =&amp;gt; DaCe bridge" style="rounded=0;whiteSpace=wrap;html=1;" parent="1" vertex="1">
                    <mxGeometry x="-1810" y="-450" width="190" height="60" as="geometry"/>
                </mxCell>
                <mxCell id="298" style="edgeStyle=none;html=1;" parent="1" source="296" target="297" edge="1">
                    <mxGeometry relative="1" as="geometry"/>
                </mxCell>
                <mxCell id="296" value="&lt;div&gt;&lt;/div&gt;🐞&amp;nbsp; - GT4Py&lt;br&gt;&lt;br&gt;Offset write in K" style="rounded=0;whiteSpace=wrap;html=1;strokeColor=#FF0000;" parent="1" vertex="1">
                    <mxGeometry x="210" y="810" width="160" height="60" as="geometry"/>
                </mxCell>
                <mxCell id="300" style="edgeStyle=none;html=1;" parent="1" source="297" target="5" edge="1">
                    <mxGeometry relative="1" as="geometry">
                        <Array as="points">
                            <mxPoint x="400" y="50"/>
                        </Array>
                    </mxGeometry>
                </mxCell>
                <mxCell id="301" style="edgeStyle=none;html=1;" parent="1" source="297" target="2" edge="1">
                    <mxGeometry relative="1" as="geometry">
                        <Array as="points">
                            <mxPoint x="400" y="50"/>
                        </Array>
                    </mxGeometry>
                </mxCell>
                <mxCell id="302" style="edgeStyle=none;html=1;" parent="1" source="297" target="8" edge="1">
                    <mxGeometry relative="1" as="geometry">
                        <Array as="points">
                            <mxPoint x="400" y="60"/>
                        </Array>
                    </mxGeometry>
                </mxCell>
                <mxCell id="297" value="🖋&amp;nbsp;- Docs&lt;br&gt;&lt;br&gt;Validation of numerical stability" style="shape=hexagon;perimeter=hexagonPerimeter2;whiteSpace=wrap;html=1;fixedSize=1;" parent="1" vertex="1">
                    <mxGeometry x="290" y="650" width="230" height="60" as="geometry"/>
                </mxCell>
                <mxCell id="303" value="" style="swimlane;startSize=0;strokeColor=#9999FF;" parent="1" vertex="1">
                    <mxGeometry x="-460" y="-1880" width="316" height="350" as="geometry">
                        <mxRectangle x="-1056" y="-1930" width="50" height="40" as="alternateBounds"/>
                    </mxGeometry>
                </mxCell>
                <mxCell id="306" value="Deliverables / Demo / Product" style="shape=hexagon;perimeter=rectanglePerimeter;whiteSpace=wrap;html=1;fixedSize=1;" parent="303" vertex="1">
                    <mxGeometry x="43" y="50" width="230" height="60" as="geometry"/>
                </mxCell>
                <mxCell id="308" value="Task&lt;div&gt;&lt;/div&gt;" style="rounded=0;whiteSpace=wrap;html=1;" parent="303" vertex="1">
                    <mxGeometry x="43" y="150" width="227" height="50" as="geometry"/>
                </mxCell>
                <mxCell id="309" value="&lt;font style=&quot;font-size: 20px;&quot;&gt;&lt;b&gt;KEYS&lt;/b&gt;&lt;/font&gt;" style="text;html=1;align=center;verticalAlign=middle;resizable=0;points=[];autosize=1;strokeColor=none;fillColor=none;" parent="303" vertex="1">
                    <mxGeometry x="111" y="-5" width="80" height="40" as="geometry"/>
                </mxCell>
                <mxCell id="310" value="External Blocker" style="shape=parallelogram;perimeter=parallelogramPerimeter;whiteSpace=wrap;html=1;fixedSize=1;" parent="303" vertex="1">
                    <mxGeometry x="40" y="250" width="240" height="60" as="geometry"/>
                </mxCell>
                <mxCell id="311" value="&lt;h1&gt;&lt;span style=&quot;background-color: initial;&quot;&gt;Software Modernization Team - Taskboard&lt;/span&gt;&lt;/h1&gt;&lt;h1&gt;&lt;span style=&quot;background-color: initial; font-size: 20px; font-weight: normal;&quot;&gt;All tasks and deliverable mapped sufficiently to be executed now.&lt;/span&gt;&lt;/h1&gt;&lt;h1&gt;&lt;span style=&quot;background-color: initial; font-size: 20px; font-weight: normal;&quot;&gt;Do not contain further objectives, ideas and refactors deemed a later priority.&lt;/span&gt;&lt;br&gt;&lt;/h1&gt;" style="text;html=1;strokeColor=none;fillColor=none;spacing=5;spacingTop=-20;whiteSpace=wrap;overflow=hidden;rounded=0;fontSize=20;" parent="1" vertex="1">
                    <mxGeometry x="-130" y="-1900" width="1160" height="280" as="geometry"/>
                </mxCell>
                <mxCell id="316" style="edgeStyle=none;html=1;entryX=0.5;entryY=1;entryDx=0;entryDy=0;fontSize=20;" parent="1" source="312" target="64" edge="1">
                    <mxGeometry relative="1" as="geometry"/>
                </mxCell>
                <mxCell id="312" value="&lt;b&gt;{...}&lt;/b&gt;&amp;nbsp;- pyMoist&lt;br&gt;Port&lt;br&gt;GF driver" style="rounded=0;whiteSpace=wrap;html=1;" parent="1" vertex="1">
                    <mxGeometry x="635" y="120" width="120" height="60" as="geometry"/>
                </mxCell>
                <mxCell id="315" style="edgeStyle=none;html=1;fontSize=20;" parent="1" source="313" target="312" edge="1">
                    <mxGeometry relative="1" as="geometry"/>
                </mxCell>
                <mxCell id="313" value="&lt;b&gt;{...}&lt;/b&gt;&amp;nbsp;- pyMoist&lt;br&gt;Port&lt;br&gt;GF Cup - Make Rain" style="rounded=0;whiteSpace=wrap;html=1;" parent="1" vertex="1">
                    <mxGeometry x="635" y="210" width="120" height="60" as="geometry"/>
                </mxCell>
            </root>
        </mxGraphModel>
    </diagram>
</mxfile>